PathFileType        4      (X/Y/Z)      C:\Users\pc\Desktop\IMUTRC\Sujet_06\Sujet_06_velo_60.trc         
DataRate	CameraRate	NumFrames	NumMarkers	Units	OrigDataRate	OrigDataStartFrame	OrigNumFrames
60.0	60.0	4	64	mm	60.0	469	936
Frame#	Time	pHipOrigin			pRightASI			pLeftASI			pRightCSI			pLeftCSI			pRightIschialTub			pLeftIschialTub			pSacrum			pL5SpinalProcess			pL3SpinalProcess			pT12SpinalProcess			pIJ			pT4SpinalProcess			pT8SpinalProcess			pPX			pC7SpinalProcess			pTopOfHead			pRightAuricularis			pLeftAuricularis			pBackOfHead			pRightAcromion			pLeftAcromion			pRightArmLatEpicondyle			pRightArmMedEpicondyle			pLeftArmLatEpicondyle			pLeftArmMedEpicondyle			pRightUlnarStyloid			pRightRadialStyloid			pRightOlecranon			pLeftUlnarStyloid			pLeftRadialStyloid			pLeftOlecranon			pRightTopOfHand			pRightPinky			pRightBallHand			pLeftTopOfHand			pLeftPinky			pLeftBallHand			pRightGreaterTrochanter			pRightKneeLatEpicondyle			pRightKneeMedEpicondyle			pRightPatella			pLeftGreaterTrochanter			pLeftKneeLatEpicondyle			pLeftKneeMedEpicondyle			pLeftPatella			pRightTibialTub			pRightLatMalleolus			pRightMedMalleolus			pLeftTibialTub			pLeftLatMalleolus			pLeftMedMalleolus			pRightHeelFoot			pRightFirstMetatarsal			pRightFifthMetatarsal			pRightPivotFoot			pRightHeelCenter			pRightToe			pLeftHeelFoot			pLeftFirstMetatarsal			pLeftFifthMetatarsal			pLeftPivotFoot			pLeftHeelCenter			pLeftToe			
		X1	Y1	Z1	X2	Y2	Z2	X3	Y3	Z3	X4	Y4	Z4	X5	Y5	Z5	X6	Y6	Z6	X7	Y7	Z7	X8	Y8	Z8	X9	Y9	Z9	X10	Y10	Z10	X11	Y11	Z11	X12	Y12	Z12	X13	Y13	Z13	X14	Y14	Z14	X15	Y15	Z15	X16	Y16	Z16	X17	Y17	Z17	X18	Y18	Z18	X19	Y19	Z19	X20	Y20	Z20	X21	Y21	Z21	X22	Y22	Z22	X23	Y23	Z23	X24	Y24	Z24	X25	Y25	Z25	X26	Y26	Z26	X27	Y27	Z27	X28	Y28	Z28	X29	Y29	Z29	X30	Y30	Z30	X31	Y31	Z31	X32	Y32	Z32	X33	Y33	Z33	X34	Y34	Z34	X35	Y35	Z35	X36	Y36	Z36	X37	Y37	Z37	X38	Y38	Z38	X39	Y39	Z39	X40	Y40	Z40	X41	Y41	Z41	X42	Y42	Z42	X43	Y43	Z43	X44	Y44	Z44	X45	Y45	Z45	X46	Y46	Z46	X47	Y47	Z47	X48	Y48	Z48	X49	Y49	Z49	X50	Y50	Z50	X51	Y51	Z51	X52	Y52	Z52	X53	Y53	Z53	X54	Y54	Z54	X55	Y55	Z55	X56	Y56	Z56	X57	Y57	Z57	X58	Y58	Z58	X59	Y59	Z59	X60	Y60	Z60	X61	Y61	Z61	X62	Y62	Z62	X63	Y63	Z63	X64	Y64	Z64	
469	7.8	0.0	1249.97291	7.653876616262013E-14	39.56985000000002	1329.34745	127.69203000000009	78.67002999999998	1340.1499	-99.21817999999993	5.459940000000013	1389.52415	106.32196000000009	38.45437999999999	1398.62405	-85.01059999999991	-57.065129999999996	1199.54189	37.10408000000008	-40.567910000000005	1204.12119	-58.532849999999925	-57.12384	1270.05138	-8.865059999999914	-25.53841	1360.99159	-0.17612999999991352	21.19394	1470.60126	9.62827000000009	66.57598	1569.81943	17.61269000000009	311.74469	1652.12943	65.04955000000005	182.87847	1729.91882	35.98861000000009	122.64306	1662.22737	26.36033000000009	233.30949	1556.25766	52.779370000000064	226.38183	1775.59441	43.56206000000008	505.48432	1811.28947	49.25683000000005	405.38551	1793.7942	125.51980000000007	401.33459	1786.04461	-18.96299999999994	391.5889	1845.4581	50.607140000000065	205.12918000000002	1744.00898	222.97671000000008	261.37238	1730.79946	-134.20872999999992	361.94087	1494.67194	226.85150000000002	351.60809	1486.68752	165.20707000000002	433.33099	1494.49581	-136.90933999999996	403.9765	1469.30966	-87.12412999999995	520.3377	1308.50576	276.81284	553.56698	1332.10677	244.46420000000003	338.04631	1481.69725	213.81811000000005	635.28988	1349.83688	-157.92716	648.14715	1365.39476	-109.96192	410.31707	1477.00054	-137.67255999999998	704.27293	1326.29458	240.82424	635.87697	1295.47237	273.05547	567.65713	1302.28261	261.19626	802.1408	1356.64713	-83.60159000000002	742.6099	1339.91507	-136.90934	673.09846	1341.26537	-136.20484	-6.047029999999983	1215.15848	146.24407000000008	230.31533000000002	918.03233	142.66282000000004	245.93192	924.02065	70.80303000000004	268.41746	948.50229	113.07350000000002	50.95939999999999	1247.44842	-142.48669999999993	389.5928	1083.70907	-90.47053999999997	381.49096	1076.89883	-17.43656999999998	399.74945	1118.40608	-46.32138999999998	261.02013	872.94383	111.19481000000003	-5.459939999999985	611.57145	117.94634000000005	2.7593200000000073	608.34246	59.530910000000034	427.22525	1046.95725	-50.196179999999984	311.50985	697.5214	-112.54512	306.87184	693.5879	-53.777429999999995	-82.13385999999998	569.00744	77.73069000000004	43.15110000000001	467.08865	79.90292000000002	27.71064000000002	477.53885	153.93495000000001	51.781320000000015	458.69327	121.17534000000003	-52.896789999999996	547.34383	86.88929000000003	108.72903000000001	411.60866	139.66867000000002	255.50148	621.84552	-85.53897999999998	407.79258	590.3188	-42.21176000000001	410.96286	590.55364	-118.53343000000001	430.51296	585.97434	-78.49391000000001	292.48814	616.15075	-84.07126	505.07336	570.53387	-75.49975000000003	
470	7.817	0.0	1249.97291	7.653876616262013E-14	38.98276000000001	1329.46487	127.80945000000008	79.25711999999999	1340.03248	-98.92462999999992	5.048970000000013	1389.58286	106.20455000000008	38.98275999999999	1398.50663	-84.95189999999991	-57.299969999999995	1199.65931	36.869240000000076	-40.333070000000006	1204.12119	-58.70897999999992	-57.06513	1270.11009	-9.158599999999915	-25.4797	1360.99159	-0.3522499999999136	21.19394	1470.60126	9.686980000000089	66.45857	1569.81943	17.847530000000088	311.45114	1652.36426	66.04760000000006	182.52622	1730.03624	36.75182000000009	122.40822	1662.28608	26.830000000000087	233.13336	1556.37508	53.425170000000065	226.02958	1775.77054	44.560120000000076	505.07336	1811.52431	50.90069000000005	404.85713	1793.97032	126.92882000000007	401.04105	1786.33816	-17.55398999999994	391.17794	1845.69293	52.07487000000006	204.30725000000004	1744.00898	223.7986300000001	261.4898	1731.32784	-133.2693899999999	361.29507	1494.67194	227.49730000000002	351.021	1486.74623	165.85287000000002	433.56582	1495.20032	-136.38095999999996	403.9765	1469.66191	-86.94799999999995	519.75061	1308.50576	277.39993	552.97989	1332.10677	245.05129000000002	337.45922	1481.69725	214.46391000000006	635.11375	1349.77817	-157.22265	647.97102	1365.33605	-109.25741	410.43448	1477.52892	-137.32030999999998	703.68584	1326.23587	241.35262	635.28988	1295.47237	273.58385	567.07004	1302.28261	261.78334	801.90597	1356.35358	-82.77966000000002	742.43377	1339.68023	-136.14613	672.92234	1341.20666	-135.44162	-5.401229999999982	1215.9217	146.3614900000001	238.76942000000003	925.13612	143.66088000000002	253.97505	931.06572	71.68367000000003	275.93221	956.428	113.71930000000003	51.07680999999999	1245.3349	-142.4279899999999	382.89997	1068.62087	-89.17893999999997	374.5633	1062.63255	-16.08625999999998	394.46564	1103.20046	-45.26461999999998	267.12586	879.51924	111.84061000000003	-8.923769999999985	628.30351	119.47278000000004	-1.1741799999999925	624.89839	60.939920000000036	421.47177	1033.21935	-48.963289999999986	313.91692	681.25901	-111.7819	309.39633	677.09067	-53.01420999999999	-86.83057999999998	587.61819	79.66809000000006	35.871190000000006	482.64653	81.72290000000002	20.959110000000017	493.74253	155.81363000000002	44.442700000000016	474.19244	123.05402000000002	-58.121889999999986	565.30877	88.76798000000004	100.27494000000002	425.75753	141.48864000000003	259.49369	604.40896	-84.83447999999999	412.43059	576.11123	-41.272410000000015	415.60087	576.28735	-117.59409000000002	435.26838	572.17773	-77.49585000000003	296.65648	599.4774	-83.30804	510.12233	558.32241	-74.38428000000003	
471	7.833	0.0	1249.97291	7.653876616262013E-14	38.39567000000002	1329.52358	127.92687000000008	79.84420999999999	1339.79765	-98.63108999999993	4.638010000000014	1389.70028	106.08713000000009	39.569849999999995	1398.38921	-84.95189999999991	-57.53479999999999	1199.77673	36.63440000000008	-40.09823000000001	1204.06248	-58.88510999999992	-56.94771	1270.11009	-9.510849999999914	-25.42099	1360.99159	-0.5870899999999135	21.19394	1470.60126	9.62827000000009	66.39986	1569.81943	18.02366000000009	311.21631	1652.5991	67.04566000000005	182.23268	1730.15366	37.515040000000084	122.2321	1662.34479	27.35838000000009	233.07465	1556.5512	54.01226000000006	225.61861	1775.94667	45.558170000000075	504.6624	1811.81785	52.60325000000005	404.21133	1794.14645	128.39654000000004	400.80621	1786.69041	-16.08625999999994	390.76698	1845.98648	53.54259000000006	203.42662000000004	1744.00898	224.6205600000001	261.60722	1731.91493	-132.27132999999992	360.64927	1494.61323	228.14310000000003	350.43391	1486.74623	166.43996000000004	433.97679	1496.08095	-135.91128999999998	404.03521	1470.01417	-86.94799999999995	519.16352	1308.44705	277.92831	552.3928	1332.10677	245.57967000000002	336.81342	1481.69725	215.10971000000006	634.99634	1349.71947	-156.63556	647.79489	1365.21864	-108.61161	410.72803	1478.23342	-137.08546999999996	703.04004	1326.11846	241.82229	634.64408	1295.41366	274.05352	566.42425	1302.2239	262.31173	801.72984	1355.94262	-81.89903000000001	742.25764	1339.38669	-135.3242	672.74621	1341.03054	-134.79582	-4.755429999999982	1216.62621	146.42020000000008	247.45835000000002	932.82699	144.42409000000004	262.19431	938.7566	72.38817000000003	283.68179	964.94081	114.18897000000003	51.07680999999999	1243.10396	-142.31056999999993	374.97426	1052.53461	-87.94604999999997	366.46146	1047.54434	-14.79465999999998	388.06636	1086.93807	-44.325279999999985	273.64256	886.79915	112.25157000000003	-11.095999999999986	645.50524	121.11663000000004	-3.8747899999999924	642.04141	62.583770000000044	414.66153	1018.36598	-47.90652999999998	314.73885	664.29212	-111.19481	310.33567	659.94765	-52.36840999999999	-90.11828999999999	606.75732	81.72290000000005	30.05900000000001	498.90892	83.54288000000003	15.73401000000002	510.47459	157.63361000000003	38.630510000000015	490.33741	124.81529000000003	-61.937969999999986	583.74339	90.76408000000006	93.34728000000001	440.66961	143.13249000000002	261.78334	586.3853	-84.12996999999999	415.1312	560.96431	-40.39178000000001	418.41891	561.14044	-116.71345000000002	438.08641	557.44177	-76.61522000000002	299.00484	582.15825	-82.54483	513.1752	544.93676	-73.44493000000003	
472	7.85	0.0	1249.97291	7.653876616262013E-14	37.86729000000001	1329.6997	128.04429000000007	80.43129999999998	1339.62152	-98.33753999999993	4.2270500000000135	1389.87641	105.91100000000009	40.098229999999994	1398.21308	-84.95189999999991	-57.769639999999995	1199.83544	36.399570000000075	-39.80469000000001	1204.06248	-59.00252999999992	-56.889	1270.1688	-9.804399999999914	-25.30357	1360.99159	-0.7632199999999135	21.25265	1470.60126	9.62827000000009	66.34115	1569.87814	18.19978000000009	310.86405	1652.83393	67.92629000000005	181.88042	1730.27108	38.27826000000009	121.99726	1662.4035	27.82806000000009	232.89853	1556.72733	54.599350000000065	225.20765	1776.12279	46.43880000000008	504.19273	1812.1114	54.30581000000005	403.62424	1794.32258	129.74685000000005	400.51267	1787.04266	-14.73594999999994	390.2973	1846.22132	55.01031000000006	202.48727000000002	1743.95027	225.3837800000001	261.78334	1732.56073	-131.27327999999991	359.88605	1494.55452	228.73019000000002	349.78811	1486.74623	167.02705000000003	434.32904	1496.96159	-135.50032999999996	404.03521	1470.42513	-87.06541999999996	518.51772	1308.38834	278.39799	551.68829	1332.04806	246.04934000000003	336.10891	1481.57984	215.63809000000006	634.82021	1349.66076	-156.10718	647.56006	1365.15993	-108.08323	410.90416	1478.93793	-136.90933999999996	702.39424	1326.05975	242.17455	633.99828	1295.29624	274.46448	565.77845	1302.16519	262.72269	801.4363	1355.59036	-81.07710000000002	742.02281	1339.15185	-134.61969	672.51137	1340.91312	-134.15002	-3.9922099999999823	1217.44813	146.4789100000001	256.49954	941.28109	145.12860000000003	270.76582	947.21069	72.91655000000003	291.60751	974.27553	114.54122000000001	50.841979999999985	1240.81431	-142.2518599999999	365.93308	1036.21351	-87.00670999999998	357.36157	1032.10388	-13.855319999999981	380.66903	1070.32343	-43.679479999999984	280.57022	894.9597	112.60382000000003	-11.624379999999986	662.76568	122.81919000000005	-4.872849999999992	659.24314	64.22762000000004	406.6184	1003.27777	-47.08459999999999	313.7995	647.32522	-110.72514	309.57246	642.80463	-51.89873999999999	-91.76213999999999	625.66161	83.77772000000006	26.12550000000001	515.28872	85.24544000000003	12.387590000000019	527.32406	159.39488000000003	34.69701000000001	506.6585	126.45914000000003	-64.05149999999999	602.11931	92.76019000000005	88.41572000000001	455.81653	144.65893000000003	262.07689	568.59648	-83.48417	415.777	545.58256	-39.628560000000014	419.0647	545.58256	-115.95024000000002	438.79092	542.29485	-75.85200000000003	299.35709	564.89781	-81.89903000000001	514.05583	530.90531	-72.56430000000003	
